<svg xmlns="http://www.w3.org/2000/svg" width="40.621" height="20.311" viewBox="0 0 40.621 20.311">
  <g id="Group_66" data-name="Group 66" transform="translate(-3.971 -54.517)">
    <g id="Subtraction_12" data-name="Subtraction 12" transform="translate(8.686 54.517)" fill="none">
      <path d="M23.655,19.1H1.733A12.7,12.7,0,1,1,24.391,7.753,12.687,12.687,0,0,1,23.655,19.1Z" stroke="none"/>
      <path d="M 22.44112968444824 17.10141563415527 C 22.67010307312012 16.59597587585449 22.85925102233887 16.0732479095459 23.00638389587402 15.53844547271729 C 23.2597541809082 14.61734580993652 23.38822364807129 13.66033554077148 23.38822364807129 12.69400596618652 C 23.38822364807129 11.24938583374023 23.10575294494629 9.849096298217773 22.54863357543945 8.53200626373291 C 22.01009368896484 7.258755683898926 21.23874282836914 6.114885807037354 20.25600433349609 5.132175922393799 C 19.27321434020996 4.149405956268311 18.12933349609375 3.378065824508667 16.85615348815918 2.839576005935669 C 15.53899383544922 2.282465934753418 14.13871383666992 1.999995946884155 12.6942138671875 1.999995946884155 C 11.24965381622314 1.999995946884155 9.849333763122559 2.28247594833374 8.532134056091309 2.839576005935669 C 7.258853912353516 3.378105878829956 6.114973545074463 4.1494460105896 5.132253646850586 5.132175922393799 C 4.149443626403809 6.114965915679932 3.378063678741455 7.258825778961182 2.839553833007812 8.532026290893555 C 2.282463788986206 9.849065780639648 2.000003814697266 11.24935626983643 2.000003814697266 12.69400596618652 C 2.000003814697266 13.660475730896 2.12847375869751 14.61744594573975 2.381873846054077 15.53842544555664 C 2.528999805450439 16.07326889038086 2.718118906021118 16.595947265625 2.947100639343262 17.10141563415527 L 22.44112968444824 17.10141563415527 M 23.65482330322266 19.10141563415527 L 23.6546745300293 19.10141563415527 L 23.65482330322266 19.10141563415527 Z M 23.65482330322266 19.10141563415527 L 1.73340368270874 19.10141563415527 C 1.175783753395081 18.14962577819824 0.7452237606048584 17.12935638427734 0.4535037279129028 16.06889533996582 C 0.1525537371635437 14.9750862121582 3.731384367711144e-06 13.83959579467773 3.731384367711144e-06 12.69400596618652 C 3.731384367711144e-06 10.98026561737061 0.3356137275695801 9.317835807800293 0.9975537061691284 7.752895832061768 C 1.636913776397705 6.241275787353516 2.552243709564209 4.883726119995117 3.718053817749023 3.71794581413269 C 4.883803844451904 2.552186012268066 6.24138355255127 1.636915922164917 7.753053665161133 0.9975559115409851 C 9.318073272705078 0.3356359004974365 10.98052406311035 -4.090270977030741e-06 12.6942138671875 -4.090270977030741e-06 C 14.4078540802002 -4.090270977030741e-06 16.07025337219238 0.3356359004974365 17.63524436950684 0.9975559115409851 C 19.14684295654297 1.63688588142395 20.50439453125 2.552165985107422 21.67020416259766 3.71794581413269 C 22.83601379394531 4.883726119995117 23.75129318237305 6.241305828094482 24.39064407348633 7.752895832061768 C 25.05259323120117 9.317835807800293 25.38822364807129 10.98029613494873 25.38822364807129 12.69400596618652 C 25.38822364807129 13.83956623077393 25.23564338684082 14.97505569458008 24.93475341796875 16.06889533996582 C 24.64297294616699 17.1295051574707 24.21237373352051 18.14972496032715 23.65488433837891 19.10128593444824 L 23.65482330322266 19.10141563415527 Z" stroke="none" fill="#062c43"/>
    </g>
    <path id="Path_23" data-name="Path 23" d="M31.77,0" transform="translate(12.822 74.827)" fill="#062c43" stroke="#fff" stroke-width="1"/>
    <path id="Polygon_21" data-name="Polygon 21" d="M8.7,0l8.7,6.287H0Z" transform="translate(3.971 68.332)" fill="#062c43"/>
    <path id="Polygon_22" data-name="Polygon 22" d="M8.463,0l8.463,8.946H0Z" transform="translate(14.368 65.672)" fill="#062c43"/>
    <path id="Polygon_23" data-name="Polygon 23" d="M8.463,0l8.463,4.836H0Z" transform="translate(22.831 69.782)" fill="#062c43"/>
  </g>
</svg>
