<svg xmlns="http://www.w3.org/2000/svg" width="38" height="38" viewBox="0 0 38 38">
  <g id="Group_65" data-name="Group 65" transform="translate(-1701 -51)">
    <g id="Ellipse_22" data-name="Ellipse 22" transform="translate(1701 51)" fill="#0a334b" stroke="#7ee3f2" stroke-width="1">
      <circle cx="19" cy="19" r="19" stroke="none"/>
      <circle cx="19" cy="19" r="18.5" fill="none"/>
    </g>
    <g id="Group_64" data-name="Group 64" transform="translate(1704.115 8.533)">
      <g id="Subtraction_12" data-name="Subtraction 12" transform="translate(7.198 54.517)" fill="#7ee3f2">
        <path d="M 15.59107685089111 12.07194042205811 L 1.783206939697266 12.07194042205811 C 1.571967601776123 11.64194774627686 1.401508569717407 11.19296741485596 1.274534225463867 10.73141098022461 C 1.092364311218262 10.06930065155029 1.000004291534424 9.381500244140625 1.000004291534424 8.687070846557617 C 1.000004291534424 7.648820877075195 1.203104257583618 6.642210483551025 1.603674292564392 5.695220470428467 C 1.990784287452698 4.779970645904541 2.545204162597656 3.957780599594116 3.251524209976196 3.251480579376221 C 3.957804203033447 2.545190572738647 4.780004501342773 1.990800738334656 5.695304393768311 1.603680729866028 C 6.642404079437256 1.203110694885254 7.649024486541748 1.000000715255737 8.687213897705078 1.000000715255737 C 9.725354194641113 1.000000715255737 10.73195457458496 1.203110694885254 11.67904472351074 1.603680729866028 C 12.59427452087402 1.990780711174011 13.41646385192871 2.545170783996582 14.12277412414551 3.251470804214478 C 14.82904434204102 3.957710742950439 15.38344383239746 4.779900550842285 15.77060413360596 5.695210456848145 C 16.17117500305176 6.642250537872314 16.3742847442627 7.648850917816162 16.3742847442627 8.687070846557617 C 16.3742847442627 9.381441116333008 16.28192520141602 10.069260597229 16.09977340698242 10.73141098022461 C 15.97281074523926 11.19294929504395 15.80234622955322 11.64191627502441 15.59107685089111 12.07194042205811 Z" stroke="none"/>
        <path d="M 14.93705463409424 11.07194042205811 C 15.01291370391846 10.87333965301514 15.07918834686279 10.67118740081787 15.13558387756348 10.46617031097412 C 15.29397392272949 9.890410423278809 15.3742847442627 9.291840553283691 15.3742847442627 8.687070846557617 C 15.3742847442627 7.783420562744141 15.19775390625 6.907880783081055 14.84960460662842 6.084780693054199 C 14.512864112854 5.288670539855957 14.03042411804199 4.573320865631104 13.41567420959473 3.958580732345581 C 12.80088424682617 3.343800783157349 12.08553409576416 2.861370801925659 11.2895040512085 2.524690628051758 C 10.46633434295654 2.176530599594116 9.590804100036621 2.000000715255737 8.687213897705078 2.000000715255737 C 7.783584117889404 2.000000715255737 6.908014297485352 2.176530599594116 6.084834098815918 2.524690628051758 C 5.288744449615479 2.861390590667725 4.573394298553467 3.343820571899414 3.958624362945557 3.958590745925903 C 3.34382438659668 4.573380470275879 2.861374378204346 5.288720607757568 2.5246741771698 6.084790706634521 C 2.17652416229248 6.907850742340088 2.000004291534424 7.783380508422852 2.000004291534424 8.687070846557617 C 2.000004291534424 9.29188060760498 2.08031439781189 9.890430450439453 2.238724231719971 10.46617031097412 C 2.295122146606445 10.67118644714355 2.361400604248047 10.87335586547852 2.437248229980469 11.07194042205811 L 14.93705463409424 11.07194042205811 M 16.18804359436035 13.07194042205811 L 16.18794441223145 13.07194042205811 L 16.18804359436035 13.07194042205811 Z M 16.18804359436035 13.07194042205811 L 1.186244249343872 13.07194042205811 C 0.8046342730522156 12.4205904006958 0.5099942684173584 11.72237110137939 0.3103542923927307 10.99665069580078 C 0.1044042780995369 10.2481107711792 4.279479981050827e-06 9.471050262451172 4.279479981050827e-06 8.687070846557617 C 4.279479981050827e-06 7.514280796051025 0.2296742796897888 6.37661075592041 0.6826742887496948 5.30565071105957 C 1.120214223861694 4.271180629730225 1.746614336967468 3.342150688171387 2.544424295425415 2.544360637664795 C 3.342204332351685 1.746580719947815 4.271254062652588 1.120210647583008 5.305764198303223 0.6826707124710083 C 6.376774311065674 0.2296906858682632 7.514464378356934 6.87866190673958e-07 8.687213897705078 6.87866190673958e-07 C 9.859933853149414 6.87866190673958e-07 10.99758434295654 0.2296906858682632 12.06858444213867 0.6826707124710083 C 13.10303401947021 1.120190739631653 14.03206443786621 1.74656069278717 14.82987403869629 2.544360637664795 C 15.62769412994385 3.342150688171387 16.25405502319336 4.271200656890869 16.69160461425781 5.30565071105957 C 17.14459419250488 6.37661075592041 17.3742847442627 7.51430082321167 17.3742847442627 8.687070846557617 C 17.3742847442627 9.471030235290527 17.26987457275391 10.24810028076172 17.0639533996582 10.99665069580078 C 16.86428451538086 11.72248077392578 16.56959342956543 12.42066097259521 16.18808364868164 13.07185077667236 L 16.18804359436035 13.07194042205811 Z" stroke="none" fill="#fff"/>
      </g>
      <line id="Line_62" data-name="Line 62" x2="31.77" transform="translate(0 68.416)" fill="none" stroke="#fff" stroke-width="1"/>
      <path id="Polygon_21" data-name="Polygon 21" d="M5.957,0l5.957,4.3H0Z" transform="translate(3.971 64.114)" fill="#17475d"/>
      <path id="Polygon_22" data-name="Polygon 22" d="M5.791,0l5.791,6.122H0Z" transform="translate(11.086 62.294)" fill="#062c43"/>
      <path id="Polygon_23" data-name="Polygon 23" d="M5.791,0l5.791,3.309H0Z" transform="translate(16.878 65.107)" fill="#062c43"/>
    </g>
  </g>
</svg>
