<svg xmlns="http://www.w3.org/2000/svg" width="39" height="30.643" viewBox="0 0 39 30.643">
  <g id="Group_144" data-name="Group 144" transform="translate(-259.4 -507.357)">
    <path id="Path_17" data-name="Path 17" d="M39.352,14.625h-.035a1.9,1.9,0,0,0-1.9,1.9.193.193,0,0,1-.192.192H6.272a.193.193,0,0,1-.192-.192,1.9,1.9,0,0,0-1.9-1.9H4.148a1.9,1.9,0,0,0-1.9,1.9v15.7a1.9,1.9,0,0,0,1.9,1.9h.035a1.9,1.9,0,0,0,1.9-1.9v-.54a.349.349,0,0,1,.348-.348H37.071a.349.349,0,0,1,.348.348v.54a1.9,1.9,0,0,0,1.9,1.9h.035a1.9,1.9,0,0,0,1.9-1.9v-15.7A1.9,1.9,0,0,0,39.352,14.625Z" transform="translate(257.15 503.875)" fill="#fff"/>
    <path id="Path_18" data-name="Path 18" d="M6.04,17.29H8a.349.349,0,0,0,.348-.348V15.81A1.4,1.4,0,0,1,9.74,14.417h8.488a1.4,1.4,0,0,1,1.393,1.393v1.132a.349.349,0,0,0,.348.348h2.089a.349.349,0,0,0,.348-.348V15.81A1.4,1.4,0,0,1,23.8,14.417h8.488A1.4,1.4,0,0,1,33.68,15.81v1.132a.349.349,0,0,0,.348.348h1.959a.7.7,0,0,0,.7-.7V8.411A2.794,2.794,0,0,0,33.9,5.625H8.129A2.794,2.794,0,0,0,5.344,8.411v8.183A.7.7,0,0,0,6.04,17.29Z" transform="translate(257.887 501.732)" fill="#fff"/>
  </g>
</svg>
