<svg xmlns="http://www.w3.org/2000/svg" width="156.281" height="70.099" viewBox="0 0 156.281 70.099">
  <g id="Group_62" data-name="Group 62" transform="translate(-47.073 -23.048)">
    <g id="Group_63" data-name="Group 63" transform="translate(-4 1)">
      <text id="Holidaze" transform="translate(85.213 86.147)" fill="#fff" font-size="20" font-family="FinalSix-Thin, FinalSix" font-weight="200"><tspan x="0" y="0">Holidaze</tspan></text>
      <g id="Group_52" data-name="Group 52" transform="translate(63.497 15.067)">
        <g id="Subtraction_12" data-name="Subtraction 12" transform="translate(52.564 6.98)" fill="#7ee3f2">
          <path d="M 46.12368392944336 37.59643936157227 L 4.010429859161377 37.59643936157227 C 3.087255954742432 35.89327239990234 2.365176916122437 34.08376312255859 1.861237645149231 32.20928955078125 C 1.289757609367371 30.08392715454102 0.999997615814209 27.87693786621094 0.999997615814209 25.64959716796875 C 0.999997615814209 22.31846809387207 1.637237668037415 19.08787727355957 2.894027709960938 16.04757690429688 C 4.107537746429443 13.11181735992432 5.844677448272705 10.47537803649902 8.057217597961426 8.211447715759277 C 10.26801776885986 5.94924783706665 12.84182739257812 4.173457622528076 15.7071475982666 2.933407783508301 C 18.67151832580566 1.650487780570984 21.82071685791016 0.9999977946281433 25.0672779083252 0.9999977946281433 C 28.31371688842773 0.9999977946281433 31.46283721923828 1.650487780570984 34.42714691162109 2.933407783508301 C 37.29230880737305 4.173397541046143 39.8660774230957 5.949187755584717 42.07698822021484 8.211447715759277 C 44.28938674926758 10.47522735595703 46.02649688720703 13.11168766021729 47.24007797241211 16.04756736755371 C 48.49689865112305 19.08798789978027 49.13415908813477 22.31857872009277 49.13415908813477 25.64959716796875 C 49.13415908813477 27.87665748596191 48.84440612792969 30.08365821838379 48.27296829223633 32.20928955078125 C 47.76900482177734 34.08378982543945 47.04692840576172 35.89323806762695 46.12368392944336 37.59643936157227 Z" stroke="none"/>
          <path d="M 45.51990127563477 36.59643936157227 C 46.27521133422852 35.11626434326172 46.8748779296875 33.55792236328125 47.30725860595703 31.94967842102051 C 47.85594940185547 29.90867805480957 48.13415908813477 27.78901863098145 48.13415908813477 25.64959716796875 C 48.13415908813477 22.4503173828125 47.52241897583008 19.34825706481934 46.31591796875 16.4295768737793 C 45.15134811401367 13.61224746704102 43.48454666137695 11.08242797851562 41.36181640625 8.910397529602051 C 39.24212646484375 6.741477966308594 36.77533721923828 5.039297580718994 34.02996826171875 3.851147890090942 C 31.1917781829834 2.622817754745483 28.17629814147949 1.999997735023499 25.0672779083252 1.999997735023499 C 21.95813751220703 1.999997735023499 18.94256782531738 2.622817754745483 16.10432815551758 3.851147890090942 C 13.35878753662109 5.039357662200928 10.89197731018066 6.741527557373047 8.772387504577637 8.910397529602051 C 6.649527549743652 11.08256816864014 4.982687473297119 13.61238765716553 3.818187713623047 16.42960739135742 C 2.611727714538574 19.34815788269043 1.999997615814209 22.45020866394043 1.999997615814209 25.64959716796875 C 1.999997615814209 27.78928756713867 2.278217554092407 29.90890693664551 2.826947689056396 31.94965744018555 C 3.259310722351074 33.55789566040039 3.858982801437378 35.11630630493164 4.614225387573242 36.59643936157227 L 45.51990127563477 36.59643936157227 M 46.71121597290039 38.59643936157227 L 46.71090698242188 38.59643936157227 L 46.71121597290039 38.59643936157227 Z M 46.71121597290039 38.59643936157227 L 3.422947645187378 38.59643936157227 C 2.321817636489868 36.67324829101562 1.471597671508789 34.61168670654297 0.8955276608467102 32.46890640258789 C 0.301247626543045 30.25875854492188 -2.36328128266905e-06 27.96437835693359 -2.36328128266905e-06 25.64959716796875 C -2.36328128266905e-06 22.18679809570312 0.6627276539802551 18.82768821716309 1.969877600669861 15.66555786132812 C 3.232417583465576 12.61117744445801 5.039917469024658 9.868097305297852 7.342037677764893 7.512507915496826 C 9.644057273864746 5.156967639923096 12.32486724853516 3.307557821273804 15.30996799468994 2.015667676925659 C 18.4004077911377 0.6781877875328064 21.68324851989746 -2.226562401119736e-06 25.0672779083252 -2.226562401119736e-06 C 28.45120811462402 -2.226562401119736e-06 31.73394775390625 0.6781877875328064 34.82433700561523 2.015667676925659 C 37.80928802490234 3.307507753372192 40.49004745483398 5.156917572021484 42.79216766357422 7.512507915496826 C 45.09428787231445 9.868097305297852 46.90169906616211 12.61122798919678 48.16423797607422 15.66555786132812 C 49.47136688232422 18.82768821716309 50.13415908813477 22.18684768676758 50.13415908813477 25.64959716796875 C 50.13415908813477 27.96432685852051 49.83285903930664 30.25870704650879 49.23867797851562 32.46890640258789 C 48.66250610351562 34.61198806762695 47.81218719482422 36.67344665527344 46.71130752563477 38.59617614746094 L 46.71121597290039 38.59643936157227 Z" stroke="none" fill="#fff"/>
        </g>
        <path id="Path_20" data-name="Path 20" d="M-4.819,0H151.461" transform="translate(-7.605 49.08)" fill="none" stroke="#fff" stroke-width="1"/>
        <g id="Polygon_21" data-name="Polygon 21" transform="translate(0.09 26.279)" fill="#17475d">
          <path d="M 60.66348266601562 21.96464157104492 L 1.546298623085022 21.96464157104492 L 31.10489082336426 0.6167722940444946 L 60.66348266601562 21.96464157104492 Z" stroke="none"/>
          <path d="M 31.10489082336426 1.233535766601562 L 3.092586517333984 21.46464157104492 L 59.11719512939453 21.46464157104492 L 31.10489082336426 1.233535766601562 M 31.10489082336426 1.9073486328125e-06 L 62.20978164672852 22.46464157104492 L 0 22.46464157104492 L 31.10489082336426 1.9073486328125e-06 Z" stroke="none" fill="#fff"/>
        </g>
        <g id="Polygon_22" data-name="Polygon 22" transform="translate(37.243 16.774)" fill="#062c43">
          <path d="M 59.32050704956055 31.46891784667969 L 1.161227583885193 31.46891784667969 L 30.24086761474609 0.7275829911231995 L 59.32050704956055 31.46891784667969 Z" stroke="none"/>
          <path d="M 30.24086761474609 1.455179214477539 L 2.322467803955078 30.96891784667969 L 58.15926742553711 30.96891784667969 L 30.24086761474609 1.455179214477539 M 30.24086761474609 -3.814697265625e-06 L 60.48173904418945 31.96891784667969 L -3.814697265625e-06 31.96891784667969 L 30.24086761474609 -3.814697265625e-06 Z" stroke="none" fill="#fff"/>
        </g>
        <g id="Polygon_23" data-name="Polygon 23" transform="translate(67.484 31.463)" fill="#062c43">
          <path d="M 58.59895706176758 16.78049659729004 L 1.882777333259583 16.78049659729004 L 30.24086761474609 0.57587069272995 L 58.59895706176758 16.78049659729004 Z" stroke="none"/>
          <path d="M 30.24086761474609 1.151744842529297 L 3.765556335449219 16.28049659729004 L 56.71617889404297 16.28049659729004 L 30.24086761474609 1.151744842529297 M 30.24086761474609 -3.814697265625e-06 L 60.48173904418945 17.28049659729004 L -3.814697265625e-06 17.28049659729004 L 30.24086761474609 -3.814697265625e-06 Z" stroke="none" fill="#fff"/>
        </g>
      </g>
    </g>
  </g>
</svg>
